<svg width="53" height="60" viewBox="0 0 53 60" fill="none" xmlns="http://www.w3.org/2000/svg">
<path d="M21.3417 4.58533C21.7755 3.51303 22.5197 2.59472 23.4788 1.94811C24.438 1.3015 25.5684 0.956055 26.7251 0.956055C27.8819 0.956055 29.0123 1.3015 29.9714 1.94811C30.9306 2.59472 31.6748 3.51303 32.1086 4.58533C36.4025 5.76622 40.19 8.32403 42.8894 11.8659C45.5888 15.4078 47.0509 19.7379 47.0511 24.1912V37.8299L52.3707 45.8093C52.6625 46.2466 52.83 46.7549 52.8555 47.28C52.881 47.8051 52.7635 48.3272 52.5155 48.7907C52.2675 49.2542 51.8983 49.6417 51.4473 49.9119C50.9964 50.182 50.4805 50.3246 49.9548 50.3246H36.7865C36.4369 52.7437 35.2274 54.9558 33.3796 56.5558C31.5318 58.1557 29.1694 59.0363 26.7251 59.0363C24.2809 59.0363 21.9185 58.1557 20.0707 56.5558C18.2229 54.9558 17.0134 52.7437 16.6638 50.3246H3.49545C2.96976 50.3246 2.4539 50.182 2.00292 49.9119C1.55194 49.6417 1.18275 49.2542 0.934747 48.7907C0.686742 48.3272 0.569224 47.8051 0.594729 47.28C0.620234 46.7549 0.787805 46.2466 1.07957 45.8093L6.39916 37.8299V24.1912C6.39916 14.8296 12.7292 6.94315 21.3417 4.58533ZM22.6193 50.3246C22.9192 51.1743 23.4753 51.9102 24.2109 52.4306C24.9465 52.9511 25.8254 53.2306 26.7266 53.2306C27.6277 53.2306 28.5067 52.9511 29.2423 52.4306C29.9779 51.9102 30.534 51.1743 30.8339 50.3246H22.6164H22.6193ZM26.7251 9.67263C22.8746 9.67263 19.1817 11.2023 16.459 13.925C13.7362 16.6478 12.2066 20.3406 12.2066 24.1912V38.7097C12.2067 39.2833 12.037 39.8441 11.7188 40.3213L8.92249 44.5171H44.5249L41.7286 40.3213C41.4114 39.8437 41.2427 39.283 41.2437 38.7097V24.1912C41.2437 20.3406 39.714 16.6478 36.9913 13.925C34.2685 11.2023 30.5757 9.67263 26.7251 9.67263Z" fill="#0D0D0D"/>
</svg>
