<svg width="59" height="59" viewBox="0 0 59 59" fill="none" xmlns="http://www.w3.org/2000/svg">
<path d="M29.0401 5.80803C22.8786 5.80803 16.9694 8.25569 12.6126 12.6126C8.25569 16.9694 5.80803 22.8786 5.80803 29.0401C5.80803 35.2017 8.25569 41.1109 12.6126 45.4677C16.9694 49.8246 22.8786 52.2723 29.0401 52.2723C35.2017 52.2723 41.1109 49.8246 45.4677 45.4677C49.8246 41.1109 52.2723 35.2017 52.2723 29.0401C52.2723 22.8786 49.8246 16.9694 45.4677 12.6126C41.1109 8.25569 35.2017 5.80803 29.0401 5.80803ZM0 29.0401C0 13.0013 13.0013 0 29.0401 0C45.079 0 58.0803 13.0013 58.0803 29.0401C58.0803 45.079 45.079 58.0803 29.0401 58.0803C13.0013 58.0803 0 45.079 0 29.0401ZM29.0401 11.6161C29.8103 11.6161 30.549 11.922 31.0936 12.4666C31.6382 13.0112 31.9442 13.7499 31.9442 14.5201V27.8379L39.8053 35.6991C40.3343 36.2468 40.627 36.9803 40.6204 37.7417C40.6138 38.5032 40.3084 39.2315 39.77 39.77C39.2315 40.3084 38.5032 40.6138 37.7417 40.6204C36.9803 40.627 36.2468 40.3343 35.6991 39.8053L26.987 31.0933C26.4424 30.5488 26.1363 29.8103 26.1361 29.0401V14.5201C26.1361 13.7499 26.4421 13.0112 26.9867 12.4666C27.5313 11.922 28.27 11.6161 29.0401 11.6161Z" fill="#0D0D0D"/>
</svg>
