<svg width="50" height="67" viewBox="0 0 50 67" fill="none" xmlns="http://www.w3.org/2000/svg">
<g clip-path="url(#clip0_324_1100)">
<path d="M18.8411 12.8516C16.1068 17.2917 14.5313 22.5261 14.5313 28.125C14.5313 40.8855 22.7083 51.7448 34.1146 55.6901C32.5 56.0547 30.8203 56.25 29.0885 56.25C16.4844 56.25 6.25 46.0026 6.25 33.3334C6.25 24.362 11.3802 16.6146 18.8542 12.8516H18.8411ZM26.9271 4.25785C11.862 5.36462 0 17.9558 0 33.3334C0 49.4401 13.0208 62.5 29.1016 62.5C35.3255 62.5 41.0807 60.5469 45.8203 57.2136C46.0677 57.0443 46.3021 56.862 46.5365 56.6927C47.1615 56.224 47.7604 55.7292 48.3464 55.2084C48.6979 54.8959 49.0365 54.5834 49.375 54.2579C50.026 53.6198 50.1953 52.6303 49.7786 51.823C49.362 51.0157 48.4635 50.5599 47.5651 50.7162C47.0833 50.7943 46.6016 50.8724 46.1198 50.9245C45.4688 50.9896 44.8047 51.0417 44.1276 51.0547C43.9714 51.0547 43.8021 51.0547 43.6458 51.0547C43.6328 51.0547 43.6198 51.0547 43.6068 51.0547C31.0026 51.0287 20.7943 40.7813 20.7943 28.1381C20.7943 21.0026 24.0365 14.6355 29.1406 10.4297C29.2708 10.3125 29.4141 10.2084 29.5573 10.0912C30.0781 9.67452 30.625 9.2839 31.1849 8.91931C31.5885 8.6589 32.0052 8.39848 32.4349 8.1641C33.2292 7.70837 33.6328 6.79692 33.4375 5.9115C33.2422 5.02608 32.487 4.36202 31.5755 4.28389C31.1068 4.24483 30.651 4.21879 30.1823 4.20577C29.8307 4.19275 29.4661 4.19275 29.1146 4.19275C28.6849 4.19275 28.2682 4.20577 27.8385 4.21879C27.5391 4.23181 27.2396 4.24483 26.9401 4.27087L26.9271 4.25785Z" fill="black"/>
</g>
<defs>
<clipPath id="clip0_324_1100">
<rect width="50" height="66.6667" fill="white"/>
</clipPath>
</defs>
</svg>
