<svg width="40" height="40" viewBox="0 0 40 40" fill="none" xmlns="http://www.w3.org/2000/svg">
<circle cx="20" cy="20" r="20" fill="#F4F4F2"/>
<path d="M35.3623 20C35.3623 28.4844 28.4844 35.3623 20 35.3623C11.5156 35.3623 4.6377 28.4844 4.6377 20C4.6377 11.5156 11.5156 4.6377 20 4.6377C28.4844 4.6377 35.3623 11.5156 35.3623 20Z" fill="#5F85DB"/>
<path d="M14.4932 18.2612C15.3631 18.8409 18.2613 20.8698 18.2613 20.8698L25.2178 12.7539H25.7975L28.9859 15.0727C28.9859 15.4123 29.2754 15.6525 28.9859 15.9423C28.6964 16.2322 19.4207 26.6669 19.4207 26.6669C19.4207 26.6669 19.1308 26.9568 18.841 26.9568C18.5511 26.9568 18.2613 26.6669 18.2613 26.6669L11.5946 22.0293C11.3283 21.7123 11.2947 21.5263 11.5946 21.1597C11.5946 21.1597 13.6232 17.6814 14.4932 18.2612Z" fill="white"/>
</svg>
