<?xml version="1.0" encoding="utf-8"?>
<!-- Generator: Adobe Illustrator 27.3.1, SVG Export Plug-In . SVG Version: 6.00 Build 0)  -->
<svg version="1.1" id="Calque_1" xmlns="http://www.w3.org/2000/svg" xmlns:xlink="http://www.w3.org/1999/xlink" x="0px" y="0px"
	 viewBox="0 0 595.3 841.9" style="enable-background:new 0 0 595.3 841.9;" xml:space="preserve">
<style type="text/css">
	.st0{fill:#FFFFFF;}
</style>
<g>
	<path class="st0" d="M-1051.3,1471.7h-992v-1024c341.3,0,682.7,0,1024,0v1008c-8.8,0.1-17.5,0.4-26.3,0.2c-4-0.1-5.8,1.1-5.5,5.3
		C-1050.9,1464.7-1051.2,1468.2-1051.3,1471.7z M-1520.2,1015.7c0.9,1.2,1.3,1.6,1.4,2c4.6,20.9,12.4,40.7,21.4,60.1
		c3.8,8.2,9.4,15.3,18.7,17.4c6.8,1.5,10,5.7,13.4,11.2c10.2,17,28.4,24.5,47.1,11.9c11.5-7.8,17.9-19.5,24.1-31.2
		c5.7-10.7,10.2-22,15.4-33c7.3-15.6,15-31.1,22.2-46.8c5.1-11,9.4-22.4,14.4-33.4c7.6-16.8,15.7-33.4,23.4-50.1
		c1.7-3.5,3.5-5,8-4.2c9.9,1.8,16.6-4.5,16.6-14.5c0-6.5,0.1-13-0.1-19.5c-0.1-3.2,0.8-4.7,4.2-5.4c12.7-2.6,20-20.3,13.5-31.7
		c-1.5-2.7-2.9-5.5-4-8.4c-2.1-6.2-5.4-8.1-11.9-6.9c-0.7,0.1-1.5-0.4-2.1-0.6c0.5-2.1,1.3-4,1.3-5.8c0.1-12.5,0.2-25-0.2-37.5
		c-0.1-2.1-2-4.9-3.8-6c-4.4-2.6-9.1-5.3-14-6.5c-9.4-2.3-14-7.4-13-17.3c0.4-3.5-1.8-5.1-5.2-5.1c-6-0.1-12-0.4-18-0.4
		c-39.2,0.1-78.3,0.3-117.4,0.4c-78.3,0.1-156.6,0.3-234.9-0.1c-17.6-0.1-37.9,18.6-36.9,36.2c0.2,4-1.3,4.7-5.1,5.3
		c-3.8,0.6-8.8,2.4-10.4,5.3c-4.7,8.5-1.1,25.1,6.4,31.3c7.9,6.5,12.7,14.9,16,24.2c5.2,14.7,10.3,29.5,15.2,44.3
		c9.1,27.5,18,55,27.1,82.4c8.9,27,17.8,53.9,27,80.8c4.2,12.3,8.7,24.9,21.9,30.6c7.4,3.2,11.7,8.8,16.2,15.1
		c12.7,17.9,29.5,19.5,46.7,5.8c9.3-7.4,15.2-17.2,20.3-27.5c9.4-19.3,18.1-38.9,27.3-58.2
		C-1525.7,1025.2-1522.9,1020.7-1520.2,1015.7z"/>
	<path d="M-224.7,1552.8c0.1-3.5,0.4-7,0.2-10.4c-0.3-4.2,1.5-5.4,5.5-5.3c8.8,0.1,17.5-0.1,26.3-0.2v16H-224.7z"/>
	<path d="M-693.4,1093.6c-2.8,5-5.5,9.4-7.7,14.2c-9.2,19.4-17.9,38.9-27.3,58.2c-5,10.3-11,20-20.3,27.5
		c-17.2,13.8-34.1,12.2-46.7-5.8c-4.5-6.4-8.8-11.9-16.2-15.1c-13.2-5.8-17.7-18.3-21.9-30.6c-9.2-26.9-18.1-53.8-27-80.8
		c-9.1-27.5-18-55-27.1-82.4c-4.9-14.8-10-29.6-15.2-44.3c-3.3-9.4-8.1-17.7-16-24.2c-7.5-6.2-11.1-22.8-6.4-31.3
		c1.6-2.9,6.7-4.7,10.4-5.3c3.7-0.6,5.3-1.4,5-5.3c-1-17.6,19.2-36.2,36.9-36.2c78.3,0.4,156.6,0.2,234.9,0.1
		c39.2,0,78.3-0.3,117.4-0.4c6,0,12,0.3,18,0.4c3.5,0,5.6,1.6,5.2,5.1c-1.1,9.9,3.5,15,13,17.3c4.9,1.2,9.6,3.8,14,6.5
		c1.9,1.1,3.8,3.9,3.8,6.1c0.4,12.5,0.3,25,0.2,37.5c0,1.8-0.8,3.7-1.3,5.8c0.7,0.2,1.5,0.8,2.1,0.6c6.5-1.3,9.8,0.7,11.9,6.9
		c1,2.9,2.4,5.7,4,8.4c6.5,11.4-0.8,29.1-13.5,31.7c-3.4,0.7-4.3,2.2-4.2,5.4c0.2,6.5,0.1,13,0.1,19.5c0,10-6.7,16.2-16.6,14.5
		c-4.5-0.8-6.3,0.7-8,4.2c-7.8,16.7-15.8,33.3-23.4,50.1c-5,11-9.3,22.4-14.4,33.4c-7.2,15.7-14.8,31.2-22.2,46.8
		c-5.2,11-9.7,22.3-15.4,33c-6.2,11.7-12.6,23.4-24.1,31.2c-18.6,12.6-36.9,5.1-47.1-11.9c-3.3-5.5-6.6-9.7-13.4-11.2
		c-9.3-2.1-14.9-9.2-18.7-17.4c-9-19.3-16.8-39.1-21.4-60.1C-692,1095.2-692.5,1094.8-693.4,1093.6z M-614.3,1076.8
		c-0.6-0.1-0.7-0.1-1.4-0.2c-3.9-12.7-7.6-25.5-11.8-38.1c-12.2-36.6-25-73-36.8-109.7c-4.6-14.3-3-17,7.2-24.4
		c5.3-3.9,9.9-9,12.8-16.1c-2.6,0-4.4,0-6.2,0c-28,0-56,0-84,0c-5.3,0-10.7,0-16,0c-4.3,0-6.4,2.6-5.6,6.4c0.5,2.7,2.2,5.4,4.2,7.4
		c3.5,3.7,8.8,6.1,11.2,10.3c4,7,6.6,14.8,9.3,22.5c5.8,16.5,11.2,33.1,16.7,49.7c7.5,22.4,14.8,44.9,22.4,67.2
		c5.9,17.1,12.1,34.2,18.3,51.2c5.5,15.2,10.6,30.4,16.6,45.4c2.9,7.3,9.5,11.1,17.3,11.3c7,0.2,12.5-3.5,16-9.4
		c3.2-5.2,6-10.8,8.6-16.3c8-17.4,15.7-34.9,23.6-52.3c13.2-28.9,26.4-57.8,39.6-86.7c1.4-3.1,3.1-6.1,4.2-8.4 M-891.6,872.5
		c2.2,0,4.2,0,6.2,0c25.5,0,51,0,76.5,0c12.8,0,25.4,12.9,25.8,25.6c0.2,6.2,1.4,12.4,1.7,18.7c0.1,1.5-1.2,3.3-2.3,4.5
		c-1.3,1.4-3.2,2.3-4.8,3.5c-6.1,4.5-6.1,7.4-0.1,11.5c10.8,7.3,20,15.9,22.6,29.6c0.3,1.7,2.5,4.2,4,4.2c8.4,0.4,16.8,0.2,25.4,0.2
		c0-1.3,0.2-2,0-2.5c-4.2-12.3-8.7-24.5-12.5-36.8c-2.1-6.7-5.7-11.8-11.3-15.9c-2.9-2.1-5.4-5-7.4-8c-5.3-7.7-5.3-16.2-1.4-24.2
		c3.7-7.6,10.4-11.2,19.3-10.6c5.4,0.3,11-0.2,16.4-0.8c1.2-0.1,3.1-1.9,3.1-2.9c0.3-6.4,0.2-12.9,0.2-19.6
		c-2.3-0.1-3.9-0.3-5.5-0.3c-39.8,0-79.6,0-119.5,0c-6.6,0-13.3,0-20,0.7C-887,850.6-893.7,860.1-891.6,872.5z M-715.1,847.7
		c0,7.8,0.1,14.4-0.1,21c-0.1,3.7,1.5,4.4,4.8,4.4c64.4,0,128.9,0,193.3,0.1c1.8,0,3.5-0.2,5.6-0.2c0-6.1,0-11.8,0-17.4
		c0-7.8-0.1-7.8-7.9-7.8c-56.5,0-112.9,0-169.4,0C-697.3,847.7-705.9,847.7-715.1,847.7z M-627.5,907.8c31.2,0,61.2,0,91.1,0
		c9.5,0,19-0.1,28.5-0.2c6.5-0.1,9.1-2.7,9.1-9c0-2.5-0.3-5,0-7.5c0.6-4.6-1.5-5.6-5.7-5.6c-22.8,0.1-45.7,0-68.5,0
		c-16.2,0-32.3,0-48.5,0.1c-1.6,0-4.5,1.2-4.7,2.1C-626.8,894.2-627,900.8-627.5,907.8z M-641.6,925.9c4.5,4.7,9,8.8,12.7,13.5
		c3.2,4,6.9,5,11.7,5c27-0.1,54,0,81,0c5.5,0,11,0.1,16.5-0.1c6.3-0.2,8.8-2.7,9-8.9c0.1-2.6-0.3-5.3,0-8c0.4-4.4-1.2-5.7-5.6-5.6
		c-35.1,0.1-70.3-0.2-105.5,0.2C-628.6,922-635.3,924.5-641.6,925.9z M-613.1,959.7c2.7,10.7,2.7,10.7,12.5,10.7c18,0,36,0,54,0
		c8.4,0,10.8-2,13.2-10.7c-21.8,0-43.7,0-65.5,0c-1.8,0-3.5,0-5.3,0c-0.7,0-1.4,0-2.2,0c-1.8,0-3.5,0-5.3,0
		C-612.1,959.7-612.6,959.7-613.1,959.7z M-479.8,929.3c0,0.1,0,0.1,0,0.2c2.8-0.2,5.7,0.1,8.3-0.7c1.4-0.4,3.4-3,3.1-4
		c-0.4-1.5-2.5-3.5-4.1-3.7c-3.9-0.5-7.9-0.1-11.9-0.2c-2.9-0.1-5,0.1-5.1,4.1c-0.1,4.1,1.8,4.8,5.2,4.5
		C-482.8,929.2-481.3,929.3-479.8,929.3z"/>
	<path class="st0" d="M-570.3,986.7l22.2-0.2c-1.2,2.4-2.8,5.3-4.2,8.4c-13.2,28.9-26.5,57.8-39.7,86.7
		c-7.9,17.4-15.6,34.9-23.6,52.3c-2.6,5.6-5.4,11.1-8.6,16.3c-3.6,5.9-9,9.6-16,9.4c-7.9-0.2-14.4-4-17.3-11.3
		c-6-15-11.2-30.2-16.6-45.4c-6.1-17.1-12.4-34.1-18.3-51.2c-7.6-22.3-14.9-44.8-22.4-67.2c-5.5-16.6-11-33.2-16.7-49.7
		c-2.7-7.7-5.3-15.5-9.3-22.5c-2.4-4.2-7.6-6.7-11.2-10.3c-1.9-2-3.7-4.8-4.2-7.4c-0.8-3.8,1.3-6.4,5.6-6.4c5.3,0,10.7,0,16,0
		c28,0,56,0,84,0c1.8,0,3.6,0,6.2,0c-2.9,7.1-7.5,12.2-12.8,16.1c-10.2,7.4-11.8,10.1-7.2,24.4c11.8,36.7,24.6,73.1,36.8,109.7
		c4.2,12.6,7.9,25.4,11.8,38.1c0.6,0.1,0.7,0.1,1.4,0.2"/>
	<path class="st0" d="M-548.2,989.7"/>
	<path class="st0" d="M-722.9,1006.6c1.4,5.1,2.3,8.5-3.3,19.9c-5.6,10.5-10.9,23.8-16.1,35.3c-5.4,12-10,24.4-15.2,36.6
		c-7.6,17.7-15.2,35.5-23.4,53c-2.1,4.5-6.2,9.1-10.5,11.3c-3.8,1.9-9.4,0.9-14,0.2c-2.1-0.3-4.7-2.8-5.6-4.9
		c-4.3-9.7-8.5-19.5-12.1-29.5c-8.2-23-16.1-46.2-23.9-69.3c-4.2-12.4-7.8-25.1-11.9-37.6c-8.4-25.2-16.9-50.5-25.5-75.6
		c-3.4-9.9-6.7-19.9-11-29.3c-2.2-4.8-5.5-8.9-9.9-11.9c-5.3-3.6-6.4-7.8-5.2-13.7c3.7,0,7.5,0,11.3,0c29.2,0.1,58.3,0.2,87.5,0.3
		c1.2,0,2.4-0.2,3.5,0.2c2,0.8,4.7,1.4,5.4,3c0.5,1.1-1.1,3.9-2.4,5.3c-3.9,4-8,8-12.4,11.4c-4.2,3.3-5,6.9-3.6,11.8l48.9,154.7
		l41.9-92.4"/>
	<path class="st0" d="M-891.6,872.5c-2.1-12.3,4.7-21.9,16.2-23c6.6-0.7,13.3-0.7,20-0.7c39.8-0.1,79.6,0,119.5,0
		c1.6,0,3.2,0.2,5.5,0.3c0,6.7,0.1,13.2-0.2,19.6c0,1.1-2,2.8-3.1,2.9c-5.4,0.5-11,1.1-16.4,0.8c-8.9-0.5-15.6,3-19.3,10.6
		c-3.9,8-3.9,16.5,1.4,24.2c2,3,4.5,5.9,7.4,8c5.6,4.1,9.2,9.2,11.3,15.9c3.9,12.4,8.3,24.6,12.5,36.9c0.2,0.6,0,1.3,0,2.5
		c-8.5,0-17,0.2-25.4-0.2c-1.4-0.1-3.7-2.6-4-4.2c-8.1-15.8-10.7-17.1-22.6-29.6c-6-4.1-6-7,0.1-11.5c1.6-1.2,3.5-2.1,4.8-3.5
		c1.1-1.2,2.4-3,2.3-4.5c-0.3-6.2-1.5-12.4-1.7-18.7c-0.3-12.7-12.9-25.6-25.8-25.6c-25.5-0.1-51,0-76.5,0
		C-887.4,872.5-889.4,872.5-891.6,872.5z"/>
	<path class="st0" d="M-715.3,847.7c9.2,0,17.8,0,26.4,0c56.5,0,112.9,0,169.4,0c7.9,0,7.9,0,7.9,7.8c0,5.6,0,11.3,0,17.4
		c-2.1,0.1-3.8,0.2-5.6,0.2c-64.5,0-128.9-0.1-193.3-0.1c-3.3,0-4.9-0.7-4.8-4.4C-715.2,862.1-715.3,855.5-715.3,847.7z"/>
	<path class="st0" d="M-627.5,907.8c0.4-7,0.7-13.5,1.5-20.1c0.1-0.9,3-2.1,4.7-2.1c16.2-0.2,32.3-0.1,48.5-0.1
		c22.8,0,45.7,0.2,68.5,0c4.2,0,6.3,1,5.7,5.6c-0.3,2.5,0,5,0,7.5c0,6.4-2.6,9-9.1,9c-9.5,0.1-19,0.2-28.5,0.2
		C-566.3,907.8-596.3,907.8-627.5,907.8z"/>
	<path class="st0" d="M-641.6,925.9c6.3-1.3,13-3.8,19.8-3.9c35.1-0.4,70.3,0,105.5-0.2c4.4,0,6.1,1.3,5.6,5.6c-0.3,2.6,0.2,5.3,0,8
		c-0.3,6.2-2.7,8.7-9,8.9c-5.5,0.2-11,0.1-16.5,0.1c-27,0-54-0.1-81,0c-4.8,0-8.5-1-11.7-5C-632.6,934.7-637.1,930.6-641.6,925.9z"
		/>
	<path class="st0" d="M-481.3,928c-1.5,0-3-0.1-4.5,0c-3.3,0.3-5.2-0.4-5.2-4.5c0.1-4,2.1-4.2,5.1-4.1c4,0.1,8-0.3,11.9,0.2
		c1.6,0.2,3.7,2.2,4.1,3.7c0.3,1-1.7,3.6-3.1,4c-2.6,0.8-5.5,0.5-8.3,0.7C-481.3,928.1-481.3,928-481.3,928z"/>
	<polygon points="-780.5,959.7 -736.2,959.7 -740.3,946.7 -780.9,946.7 -783.1,955.3 	"/>
	<polygon points="-795.3,920.8 -751,920.8 -755.1,907.8 -795.7,907.8 -797.9,916.4 	"/>
	<polygon points="-804.3,886.2 -760,886.2 -754.8,872.5 -804.7,873.2 -806.8,881.8 	"/>
</g>
</svg>
