<svg width="231" height="208" viewBox="0 0 231 208" fill="none" xmlns="http://www.w3.org/2000/svg">
<path d="M31.2603 3.24229C29.0819 1.13832 26.1643 -0.0258796 23.1359 0.000436629C20.1074 0.0267529 17.2105 1.24148 15.069 3.38298C12.9275 5.52449 11.7127 8.42143 11.6864 11.4499C11.6601 14.4783 12.8243 17.3959 14.9283 19.5743L42.926 47.5721C26.4092 60.0001 11.9945 77.0714 1.21816 98.6472C0.417049 100.25 0 102.018 0 103.81C0 105.602 0.417049 107.37 1.21816 108.973C26.1436 158.835 70.404 184.662 115.496 184.662C133.457 184.662 151.302 180.561 167.819 172.476L199.732 204.378C201.91 206.482 204.828 207.646 207.856 207.62C210.885 207.594 213.782 206.379 215.923 204.237C218.065 202.096 219.28 199.199 219.306 196.17C219.332 193.142 218.168 190.224 216.064 188.046L31.2603 3.24229ZM150.309 154.955C138.989 159.378 127.208 161.561 115.496 161.561C81.2035 161.561 46.1717 142.85 24.5958 103.81C34.0324 86.7274 46.0561 73.5485 59.4544 64.112L84.2181 88.8757C81.1236 95.3433 80.1116 102.612 81.3215 109.678C82.5314 116.745 85.9037 123.263 90.9735 128.333C96.0433 133.403 102.561 136.775 109.628 137.985C116.695 139.195 123.963 138.183 130.431 135.088L150.297 154.955H150.309ZM191.173 125.709C196.752 119.287 201.869 111.999 206.396 103.81C184.821 64.7704 149.8 46.059 115.496 46.059C114.203 46.059 112.909 46.0821 111.615 46.1398L90.9981 25.5342C99.0519 23.8232 107.263 22.96 115.496 22.9585C160.577 22.9585 204.849 48.7849 229.774 98.6472C230.575 100.25 230.992 102.018 230.992 103.81C230.992 105.602 230.575 107.37 229.774 108.973C223.854 120.936 216.378 132.062 207.54 142.065L191.173 125.709Z" fill="#5F85DB"/>
</svg>
