<svg width="231" height="162" viewBox="0 0 231 162" fill="none" xmlns="http://www.w3.org/2000/svg">
<path d="M150.147 80.8514C150.147 90.0413 146.497 98.8549 139.998 105.353C133.5 111.851 124.687 115.502 115.497 115.502C106.307 115.502 97.4932 111.851 90.9949 105.353C84.4966 98.8549 80.8459 90.0413 80.8459 80.8514C80.8459 71.6614 84.4966 62.8479 90.9949 56.3496C97.4932 49.8514 106.307 46.2007 115.497 46.2007C124.687 46.2007 133.5 49.8514 139.998 56.3496C146.497 62.8479 150.147 71.6614 150.147 80.8514Z" fill="#5F85DB"/>
<path d="M229.774 75.6887C204.849 25.8263 160.588 0 115.496 0C70.4156 0 26.1436 25.8263 1.21816 75.6887C0.417049 77.2918 0 79.0594 0 80.8516C0 82.6438 0.417049 84.4114 1.21816 86.0146C26.1436 135.877 70.404 161.703 115.496 161.703C160.577 161.703 204.849 135.877 229.774 86.0146C230.575 84.4114 230.992 82.6438 230.992 80.8516C230.992 79.0594 230.575 77.2918 229.774 75.6887ZM115.496 138.603C81.2035 138.603 46.1717 119.891 24.5958 80.8516C46.1717 41.8118 81.1919 23.1005 115.496 23.1005C149.789 23.1005 184.821 41.8118 206.396 80.8516C184.821 119.891 149.789 138.603 115.496 138.603Z" fill="#5F85DB"/>
</svg>
