<svg width="102" height="102" viewBox="-39 -40 102 102" fill="none" xmlns="http://www.w3.org/2000/svg">
<path d="M8.13853 1.43833C8.33853 2.33833 7.73854 3.23832 6.83854 3.33832L1.93853 4.23833C1.03853 4.43833 0.138539 3.83832 0.0385386 2.83832C-0.161461 1.93832 0.438542 1.03833 1.33854 0.938329L6.23854 0.0383199C7.13854 -0.16168 8.03853 0.438329 8.13853 1.43833Z" fill="#E36A41"/>
<path d="M15.9389 1.43833C15.7389 2.33833 16.3389 3.23832 17.2389 3.33832L22.1389 4.23833C23.0389 4.43833 23.9389 3.83832 24.0389 2.83832C24.2389 1.93832 23.6389 1.03833 22.7389 0.938329L17.8389 0.0383199C16.9389 -0.16168 16.1389 0.438329 15.9389 1.43833Z" fill="#E36A41"/>
</svg>
