<svg width="102" height="102" viewBox="-38 -40 102 102" fill="none" xmlns="http://www.w3.org/2000/svg">
<path d="M10.4575 2.15749C10.7575 3.55749 9.85747 5.0575 8.35747 5.3575L3.15752 6.45747C1.75752 6.75747 0.357479 5.8575 0.0574788 4.3575C-0.242521 2.9575 0.657516 1.45749 2.15752 1.15749L7.35747 0.0574802C8.75747 -0.24252 10.1575 0.657486 10.4575 2.15749Z" fill="#BA4A27"/>
<path d="M15.9579 2.15749C15.6579 3.55749 16.5578 5.0575 18.0578 5.3575L23.2579 6.45747C24.6579 6.75747 26.0578 5.8575 26.3578 4.3575C26.6578 2.9575 25.7579 1.45749 24.2579 1.15749L19.0578 0.0574802C17.6578 -0.24252 16.2579 0.657486 15.9579 2.15749Z" fill="#BA4A27"/>
</svg>
