<svg width="46" height="43" viewBox="0 0 46 43" fill="none" xmlns="http://www.w3.org/2000/svg">
<path d="M23.0996 20C28.6225 20 33.0996 15.5228 33.0996 10C33.0996 4.47715 28.6225 0 23.0996 0C17.5768 0 13.0996 4.47715 13.0996 10C13.0996 15.5228 17.5768 20 23.0996 20Z" fill="#EA8723"/>
<path d="M22.9 10.6001C10.2 10.6001 0 20.0001 0 31.7001C0 35.6001 1.10001 39.2001 3.10001 42.3001L5.39999 25.9001C6.69999 25.0001 8.30001 24.4001 10.2 24.1001C11.1 27.2001 16.5 29.6001 22.9 29.6001C29.3 29.6001 34.7 27.2001 35.6 24.1001C37.6 24.4001 39.1 25.0001 40.4 25.9001L42.7 42.3001C44.7 39.2001 45.8 35.6001 45.8 31.7001C45.8 20.0001 35.6 10.6001 22.9 10.6001Z" fill="#EA8723"/>
</svg>
