<svg width="47" height="32" viewBox="0 0 47 32" fill="none" xmlns="http://www.w3.org/2000/svg">
<path d="M3.69995 31.9C3.29995 30.2 3.09998 28.5 3.09998 26.7C3.09998 15.2 12 5.79999 23 5.79999C34 5.79999 42.9 15.1 42.9 26.7C42.9 28.5 42.7 30.3 42.3 31.9H45.6C46 30 46.2 28.1 46.2 26.1C46.2 11.7 35.9 0 23.1 0C10.4 0 0 11.7 0 26.1C0 28.1 0.199976 30 0.599976 31.9H3.69995Z" fill="#E83837"/>
<path d="M22.9008 14.4999C26.822 14.4999 30.0008 11.8584 30.0008 8.59995C30.0008 5.34146 26.822 2.69995 22.9008 2.69995C18.9795 2.69995 15.8008 5.34146 15.8008 8.59995C15.8008 11.8584 18.9795 14.4999 22.9008 14.4999Z" fill="#E83837"/>
</svg>
