<svg width="47" height="50" viewBox="0 0 47 50" fill="none" xmlns="http://www.w3.org/2000/svg">
<path d="M23.1996 49.2C35.9574 49.2 46.2996 38.1862 46.2996 24.6C46.2996 11.0138 35.9574 0 23.1996 0C10.4418 0 0.0996094 11.0138 0.0996094 24.6C0.0996094 38.1862 10.4418 49.2 23.1996 49.2Z" fill="#641B1B"/>
<path d="M0 28.8C0 30.9 0.200006 32.9 0.600006 34.9H3.90002C3.50002 33.1 3.30002 31.3 3.30002 29.4C3.30002 23.6 5.40002 18.3 8.80002 14.4V7.5C3.40002 12.5 0 20.2 0 28.8Z" fill="#641B1B"/>
<path d="M37.6992 7.5V14.4C41.0992 18.3 43.1992 23.6 43.1992 29.4C43.1992 31.3 42.9992 33.1 42.5992 34.9H45.8992C46.2992 33 46.4992 30.9 46.4992 28.8C46.3992 20.2 42.9992 12.5 37.6992 7.5Z" fill="#641B1B"/>
</svg>
