<svg width="48" height="33" viewBox="0 0 48 33" fill="none" xmlns="http://www.w3.org/2000/svg">
<path d="M3.99997 32.9C3.59997 31.2 3.30002 29.4 3.30002 27.5C3.30002 15.6 12.5 6 23.7 6C34.9 6 44.1 15.6 44.1 27.5C44.1 29.4 43.9 31.2 43.4 32.9H46.8C47.2 31 47.4 29 47.4 26.9C47.4 12.1 36.8 0 23.7 0C10.6 0 0 12 0 26.9C0 29 0.200006 30.9 0.600006 32.9H3.99997Z" fill="#0B2C48"/>
<path d="M12.6005 7.39995C11.0005 11.5 17.1005 17.8 26.3005 21.6C35.5005 25.4 44.3004 25.2 46.0004 21.1C47.6004 17 41.5005 10.7 32.3005 6.89995C23.0005 3.09995 14.2005 3.29995 12.6005 7.39995Z" fill="#0B2C48"/>
<path d="M23.4001 5.90004C21.5001 3.70004 15.6001 5.60009 10.2001 10.2001C4.80006 14.8001 1.9001 20.4 3.8001 22.6C5.7001 24.8001 11.6 22.9001 17 18.3001C22.4 13.7001 25.3001 8.20004 23.4001 5.90004Z" fill="#0B2C48"/>
</svg>
