<svg width="102" height="102" viewBox="0 -5 102 102" fill="none" xmlns="http://www.w3.org/2000/svg">
  <path d="M30.99997 47.4C30.59997 45.7 30.30002 43.9 30.30002 42C30.30002 30.1 39.5 20.5 50.7 20.5C61.9 20.5 71.1 30.1 71.1 42C71.1 43.9 70.9 45.7 70.4 47.4H73.8C74.2 45.5 74.4 43.5 74.4 41.4C74.4 26.6 63.8 14.5 50.7 14.5C37.6 14.5 27 26.5 27 41.4C27 43.5 27.200006 45.4 27.600006 47.4H30.99997Z" fill="#0B2C48"/>
  <path d="M39.6005 22.4C38.0005 26.5 44.1005 32.8 53.3005 36.6C62.5005 40.4 71.3004 40.2 73.0004 36.1C74.6004 32 68.5005 25.7 59.3005 21.9C50.0005 18.1 41.2005 18.3 39.6005 22.4Z" fill="#0B2C48"/>
  <path d="M50.4001 20.9C48.5001 18.7 42.6001 20.6 37.2001 25.2C31.8001 29.8 28.9001 35.4 30.8001 37.6C32.7001 39.8 38.6 37.9 44 33.3C49.4 28.7 52.3001 23.2 50.4001 20.9Z" fill="#0B2C48"/>
</svg>
