<svg width="102" height="102" viewBox="-12 -21 102 102" fill="none" xmlns="http://www.w3.org/2000/svg">
<path d="M56.0724 74.5998C58.9724 61.1998 59.0724 47.0998 56.4724 33.5998C55.3724 27.8998 53.6724 22.3998 51.2724 17.0998C49.3724 12.8998 46.7724 8.79981 43.4724 5.49981C41.9724 3.99981 40.1724 2.59982 38.3724 1.69982C36.4724 0.699821 34.0724 1.19978 32.8724 3.09978C31.7724 4.89978 32.3724 7.59978 34.2724 8.59978C34.9724 8.99978 35.7724 9.39983 36.3724 9.89983C37.0724 10.3998 35.5724 9.2998 36.2724 9.7998C36.4724 9.8998 36.5724 10.0998 36.7724 10.1998C37.1724 10.4998 37.5724 10.8998 37.9724 11.2998C38.6724 11.9998 39.2724 12.6998 39.8724 13.4998C40.4724 14.1998 39.2724 12.7998 39.8724 13.4998C40.0724 13.6998 40.1724 13.8998 40.3724 14.0998C40.7724 14.5998 41.0724 15.0998 41.3724 15.5998C42.6724 17.5998 43.7724 19.7998 44.6724 21.9998C45.0724 22.9998 44.3724 21.1998 44.7724 22.1998C44.8724 22.4998 44.9724 22.7998 45.0724 23.0998C45.2724 23.6998 45.5724 24.2998 45.7724 24.8998C46.2724 26.1998 46.6724 27.5998 47.0724 28.9998C47.8724 31.7998 48.4724 34.6998 48.9724 37.5998C49.0724 38.2998 49.1724 39.0999 49.2724 39.7999C49.2724 39.8999 49.4724 41.0998 49.3724 40.1998C49.3724 40.5998 49.4724 40.9999 49.4724 41.2999C49.6724 42.9999 49.7724 44.5999 49.9724 46.2999C50.1724 49.6999 50.2724 53.0998 50.1724 56.5998C50.0724 58.2998 49.9724 59.9998 49.8724 61.6998C49.7724 62.4998 49.7724 63.3998 49.6724 64.1998C49.6724 64.5998 49.5724 64.9998 49.5724 65.3998C49.5724 65.6998 49.4724 65.8998 49.4724 66.1998C49.5724 65.7998 49.4724 65.7999 49.4724 66.2999C49.1724 68.3999 48.7724 70.3998 48.3724 72.4998C47.8724 74.5998 48.9724 76.7998 51.1724 77.3998C53.1724 77.9998 55.6724 76.7998 56.0724 74.5998Z" fill="#0B2C48"/>
<path d="M63.672 74.3999C66.572 60.9999 66.672 46.8999 64.072 33.3999C62.972 27.6999 61.2721 22.1999 58.8721 16.8999C56.9721 12.6999 54.372 8.59984 51.072 5.29984C49.572 3.79984 47.772 2.39985 45.972 1.49985C44.072 0.499854 41.672 0.999879 40.472 2.89988C39.372 4.69988 39.9721 7.39988 41.8721 8.39988C42.5721 8.79988 43.372 9.19987 43.972 9.69987C44.672 10.1999 43.1721 9.09983 43.8721 9.59983C44.0721 9.69983 44.1721 9.89985 44.3721 9.99985C44.7721 10.2999 45.172 10.6998 45.572 11.0998C46.272 11.7998 46.872 12.4998 47.472 13.2998C48.072 13.9998 46.872 12.5998 47.472 13.2998C47.672 13.4998 47.772 13.6999 47.972 13.8999C48.372 14.3999 48.672 14.8999 48.972 15.3999C50.272 17.3999 51.372 19.5999 52.272 21.7999C52.672 22.7999 51.9721 20.9999 52.3721 21.9999C52.4721 22.2999 52.572 22.5999 52.672 22.8999C52.872 23.4999 53.1721 24.0998 53.3721 24.6998C53.8721 25.9998 54.272 27.3999 54.672 28.7999C55.472 31.5999 56.072 34.4999 56.572 37.3999C56.672 38.0999 56.7721 38.8998 56.8721 39.5998C56.8721 39.6998 57.072 40.8999 56.972 39.9999C56.972 40.3999 57.072 40.7998 57.072 41.0998C57.272 42.7998 57.372 44.3998 57.572 46.0998C57.772 49.4998 57.872 52.8999 57.772 56.3999C57.672 58.0999 57.572 59.7999 57.472 61.4999C57.372 62.2999 57.372 63.1999 57.272 63.9999C57.272 64.3999 57.172 64.7998 57.172 65.1998C57.172 65.4998 57.072 65.6999 57.072 65.9999C57.172 65.5999 57.072 65.5998 57.072 66.0998C56.772 68.1998 56.372 70.1999 55.972 72.2999C55.472 74.3999 56.572 76.5998 58.772 77.1998C60.772 77.7998 63.172 76.5999 63.672 74.3999Z" fill="#0B2C48"/>
<path d="M29.7711 73.3999C29.4711 71.8999 29.1711 70.2999 28.8711 68.7999C28.7711 68.3999 28.7711 67.9999 28.6711 67.5999C28.6711 67.5999 28.471 66.2999 28.571 67.0999C28.471 66.1999 28.3711 65.1999 28.2711 64.2999C27.8711 60.7999 27.7711 57.1998 27.7711 53.6998C27.7711 50.3998 27.9711 47.0999 28.2711 43.7999C28.3711 42.9999 28.471 42.2999 28.571 41.4999C28.771 40.2999 28.4711 42.2999 28.6711 41.0999C28.7711 40.6999 28.7711 40.3999 28.8711 39.9999C29.0711 38.3999 29.3711 36.8999 29.6711 35.2999C30.2711 32.4999 30.9711 29.6999 31.8711 26.9999C32.2711 25.7999 32.6711 24.5999 33.1711 23.3999C33.2711 23.1999 33.6711 22.2999 33.2711 23.1999C33.3711 22.8999 33.4711 22.5999 33.6711 22.3999C33.9711 21.7999 34.271 21.0999 34.571 20.4999C35.571 18.3999 36.771 16.4999 38.071 14.5999C38.771 13.6999 38.171 14.3999 38.071 14.5999C38.271 14.3999 38.371 14.1999 38.571 13.9999C38.871 13.5999 39.171 13.2999 39.571 12.8999C40.271 12.1999 40.9711 11.4999 41.7711 10.7999C42.5711 10.0999 41.2711 11.1999 41.8711 10.7999C42.0711 10.5999 42.371 10.4999 42.571 10.2999C43.071 9.99989 43.4711 9.6999 43.9711 9.4999C45.8711 8.4999 46.4711 5.7999 45.3711 3.9999C44.2711 1.9999 41.8711 1.49987 39.8711 2.59987C35.9711 4.69987 32.9711 7.99991 30.4711 11.6999C27.5711 15.9999 25.4711 20.8999 23.9711 25.8999C20.0711 38.2999 19.1711 51.8998 20.4711 64.6998C20.8711 68.3998 21.3711 71.9999 22.1711 75.5999C22.6711 77.6999 25.071 78.9999 27.071 78.3999C29.071 77.6999 30.1711 75.4999 29.7711 73.3999Z" fill="#0B2C48"/>
<path d="M22.1715 73.1999C21.8715 71.6999 21.5714 70.0999 21.2714 68.5999C21.1714 68.1999 21.1714 67.7999 21.0714 67.3999C21.0714 67.3999 20.8715 66.0999 20.9715 66.8999C20.8715 65.9999 20.7715 64.9999 20.6715 64.0999C20.2715 60.5999 20.1715 56.9999 20.1715 53.4999C20.1715 50.1999 20.3715 46.8999 20.6715 43.5999C20.7715 42.7999 20.8715 42.1 20.9715 41.3C21.1715 40.1 20.8714 42.0999 21.0714 40.8999C21.1714 40.4999 21.1714 40.2 21.2714 39.8C21.4714 38.2 21.7714 36.6999 22.0714 35.0999C22.6714 32.2999 23.3714 29.5 24.2714 26.8C24.6714 25.6 25.0714 24.3999 25.5714 23.1999C25.6714 22.9999 26.0715 22.0999 25.6715 22.9999C25.7715 22.6999 25.8714 22.3999 26.0714 22.1999C26.3714 21.5999 26.6715 20.9 26.9715 20.3C27.9715 18.2 29.1715 16.2999 30.4715 14.3999C31.1715 13.4999 30.5715 14.1999 30.4715 14.3999C30.6715 14.1999 30.7715 13.9999 30.9715 13.7999C31.2715 13.3999 31.5715 13.0999 31.9715 12.6999C32.6715 11.9999 33.3715 11.2999 34.1715 10.5999C34.9715 9.89989 33.6714 10.9999 34.2714 10.5999C34.4714 10.3999 34.7715 10.2999 34.9715 10.0999C35.4715 9.79989 35.8715 9.4999 36.3715 9.2999C38.2715 8.2999 38.8714 5.5999 37.7714 3.7999C36.6714 1.7999 34.2714 1.29994 32.2714 2.39994C28.3714 4.49994 25.3715 7.79992 22.8715 11.4999C19.9715 15.7999 17.8715 20.6999 16.3715 25.6999C12.4715 38.0999 11.5715 51.6999 12.8715 64.4999C13.2715 68.1999 13.7715 71.7999 14.5715 75.3999C15.0715 77.4999 17.4715 78.7999 19.4715 78.1999C21.5715 77.4999 22.6715 75.2999 22.1715 73.1999Z" fill="#0B2C48"/>
<path d="M16.9707 16.1001L17.0707 35.3002H19.5707L21.3707 16.1001H16.9707Z" fill="#0B2C48"/>
<path d="M55.0703 16.1001L56.9703 35.2001H59.5703V16.1001H55.0703Z" fill="#0B2C48"/>
<path d="M6.9709 75.1C3.1709 63.1 2.57089 50 5.37089 37.7C7.57089 28 11.8709 18.3 19.1709 11.4C23.8709 6.90002 29.9709 3.89999 36.5709 3.79999C38.9709 3.79999 38.9709 0 36.5709 0C15.9709 0.1 4.27091 22.2 1.17091 40C-0.929087 51.9 -0.229099 64.5 3.4709 76C4.0709 78.4 7.6709 77.4 6.9709 75.1Z" fill="#0B2C48"/>
<path d="M14.3711 75.1001C10.5711 63.1001 10.0711 50.1001 12.7711 37.9001C14.9711 28.0001 19.3711 18.5001 26.6711 11.7001C27.0711 11.3001 27.4712 11.0001 27.8712 10.6001C28.4712 10.1001 28.5711 10.0001 28.9711 9.7001C29.8711 9.0001 30.8711 8.40012 31.7711 7.90012C32.1711 7.60012 32.6711 7.4001 33.0711 7.2001C33.2711 7.1001 33.5711 7.00012 33.7711 6.90012C33.8711 6.90012 34.7711 6.5001 34.2711 6.7001C35.2711 6.3001 36.2712 5.90007 37.3712 5.60007C40.6712 4.70007 39.2711 -0.499883 35.9711 0.400117C26.7711 3.00012 19.5711 10.0001 14.7711 18.1001C8.87111 27.9001 6.07114 39.6001 5.67114 51.0001C5.37114 59.6001 6.47113 68.3001 9.07113 76.5001C9.47113 77.9001 10.8711 78.8001 12.3711 78.4001C13.8711 78.1001 14.8711 76.5001 14.3711 75.1001Z" fill="#0B2C48"/>
<path d="M73.1699 76.1C77.0699 63.9 77.5699 50.6 75.0699 38C73.0699 27.8 68.6699 17.8 61.5699 10.2C55.9699 4.20001 48.3699 0 39.9699 0C37.5699 0 37.5699 3.69999 39.9699 3.79999C48.5699 3.79999 55.8699 8.90002 61.0699 15.4C67.5699 23.5 71.0699 34.1 72.2699 44.3C73.5699 54.6 72.6699 65.2 69.4699 75C68.7699 77.4 72.3699 78.4 73.1699 76.1Z" fill="#0B2C48"/>
<path d="M67.2707 76.6C71.2707 64.2 71.7708 50.7 69.1708 37.9C67.0708 27.5 62.4708 17.3 55.1708 9.59999C51.1708 5.39999 46.0707 2.10002 40.4707 0.500017C37.1707 -0.399983 35.7707 4.70003 39.0707 5.70003C42.8707 6.80003 46.4707 8.90002 49.4707 11.5C53.1707 14.7 55.6707 18.3 58.0707 22.5C63.4707 32.2 65.6707 43.8 65.5707 55C65.4707 61.9 64.3707 68.7 62.2707 75.2C61.8707 76.6 62.7708 78.1 64.1708 78.5C65.4708 78.8 66.7707 78 67.2707 76.6Z" fill="#0B2C48"/>
</svg>
