<svg width="46" height="33" viewBox="0 0 46 33" fill="none" xmlns="http://www.w3.org/2000/svg">
<path d="M22.9 0C10.2 0 0 9.70002 0 21.8C0 25.8 1.10001 29.5 3.10001 32.7L5.40002 15.8C6.70002 14.8 8.30001 14.3 10.2 14C11.1 17.2 16.5 19.7 22.9 19.7C29.3 19.7 34.7 17.2 35.6 14C37.6 14.3 39.1 14.9 40.4 15.8L42.7 32.7C44.7 29.5 45.8 25.7 45.8 21.8C45.8 9.80002 35.6 0 22.9 0Z" fill="#0B2C48"/>
<path d="M22.9004 21.2001C32.8415 21.2001 40.9004 16.8125 40.9004 11.4001C40.9004 5.98773 32.8415 1.6001 22.9004 1.6001C12.9593 1.6001 4.90039 5.98773 4.90039 11.4001C4.90039 16.8125 12.9593 21.2001 22.9004 21.2001Z" fill="#0B2C48"/>
</svg>
