<svg width="78" height="68" viewBox="0 0 78 68" fill="none" xmlns="http://www.w3.org/2000/svg">
<path d="M24.5 23.1C30.0229 23.1 34.5 18.7124 34.5 13.3C34.5 7.8876 30.0229 3.5 24.5 3.5C18.9772 3.5 14.5 7.8876 14.5 13.3C14.5 18.7124 18.9772 23.1 24.5 23.1Z" fill="#641B1B"/>
<path d="M12.6992 36.4999C18.2221 36.4999 22.6992 32.1123 22.6992 26.6999C22.6992 21.2875 18.2221 16.8999 12.6992 16.8999C7.17637 16.8999 2.69922 21.2875 2.69922 26.6999C2.69922 32.1123 7.17637 36.4999 12.6992 36.4999Z" fill="#641B1B"/>
<path d="M10 51.7001C15.5228 51.7001 20 47.3125 20 41.9001C20 36.4878 15.5228 32.1001 10 32.1001C4.47715 32.1001 0 36.4878 0 41.9001C0 47.3125 4.47715 51.7001 10 51.7001Z" fill="#641B1B"/>
<path d="M11.8008 67.2999C17.3236 67.2999 21.8008 62.9123 21.8008 57.4999C21.8008 52.0875 17.3236 47.7 11.8008 47.7C6.27793 47.7 1.80078 52.0875 1.80078 57.4999C1.80078 62.9123 6.27793 67.2999 11.8008 67.2999Z" fill="#641B1B"/>
<path d="M26.0996 31.6C31.6225 31.6 36.0996 27.2124 36.0996 21.8C36.0996 16.3876 31.6225 12 26.0996 12C20.5768 12 16.0996 16.3876 16.0996 21.8C16.0996 27.2124 20.5768 31.6 26.0996 31.6Z" fill="#641B1B"/>
<path d="M53.5 23.1C59.0228 23.1 63.5 18.7124 63.5 13.3C63.5 7.8876 59.0228 3.5 53.5 3.5C47.9772 3.5 43.5 7.8876 43.5 13.3C43.5 18.7124 47.9772 23.1 53.5 23.1Z" fill="#641B1B"/>
<path d="M65.3008 36.4999C70.8236 36.4999 75.3008 32.1123 75.3008 26.6999C75.3008 21.2875 70.8236 16.8999 65.3008 16.8999C59.7779 16.8999 55.3008 21.2875 55.3008 26.6999C55.3008 32.1123 59.7779 36.4999 65.3008 36.4999Z" fill="#641B1B"/>
<path d="M67.9004 51.7001C73.4232 51.7001 77.9004 47.3125 77.9004 41.9001C77.9004 36.4878 73.4232 32.1001 67.9004 32.1001C62.3775 32.1001 57.9004 36.4878 57.9004 41.9001C57.9004 47.3125 62.3775 51.7001 67.9004 51.7001Z" fill="#641B1B"/>
<path d="M66.2012 67.2999C71.724 67.2999 76.2012 62.9123 76.2012 57.4999C76.2012 52.0875 71.724 47.7 66.2012 47.7C60.6783 47.7 56.2012 52.0875 56.2012 57.4999C56.2012 62.9123 60.6783 67.2999 66.2012 67.2999Z" fill="#641B1B"/>
<path d="M51.9004 31.6C57.4232 31.6 61.9004 27.2124 61.9004 21.8C61.9004 16.3876 57.4232 12 51.9004 12C46.3775 12 41.9004 16.3876 41.9004 21.8C41.9004 27.2124 46.3775 31.6 51.9004 31.6Z" fill="#641B1B"/>
<path d="M39.5996 19.6C45.1225 19.6 49.5996 15.2124 49.5996 9.79999C49.5996 4.3876 45.1225 0 39.5996 0C34.0768 0 29.5996 4.3876 29.5996 9.79999C29.5996 15.2124 34.0768 19.6 39.5996 19.6Z" fill="#641B1B"/>
<path d="M39.5996 27.6C45.1225 27.6 49.5996 23.2124 49.5996 17.8C49.5996 12.3876 45.1225 8 39.5996 8C34.0768 8 29.5996 12.3876 29.5996 17.8C29.5996 23.2124 34.0768 27.6 39.5996 27.6Z" fill="#641B1B"/>
</svg>
