<svg width="16" height="13" viewBox="0 0 16 13" fill="none" xmlns="http://www.w3.org/2000/svg">
<path d="M7.60039 8.80002C11.0246 8.80002 13.8004 6.83008 13.8004 4.40002C13.8004 1.96997 11.0246 0 7.60039 0C4.17622 0 1.40039 1.96997 1.40039 4.40002C1.40039 6.83008 4.17622 8.80002 7.60039 8.80002Z" fill="#E36A41"/>
<path d="M7.60039 12.9999C11.0246 12.9999 13.8004 10.5823 13.8004 7.59995C13.8004 4.61761 11.0246 2.19995 7.60039 2.19995C4.17622 2.19995 1.40039 4.61761 1.40039 7.59995C1.40039 10.5823 4.17622 12.9999 7.60039 12.9999Z" fill="#E36A41"/>
<path d="M0 1.8999C0.1 6.6999 3.49999 10.4999 7.59999 10.4999C11.7 10.4999 15.1 6.6999 15.2 1.8999C13.1 2.9999 10.5 3.69989 7.59999 3.69989C4.79999 3.69989 2.2 2.9999 0 1.8999Z" fill="#0B2C48"/>
<path d="M3.39999 6.49979H11.9C12.6 6.49979 13.2 5.8998 13.2 5.1998V2.7998C11.5 3.3998 9.59999 3.6998 7.59999 3.6998C5.59999 3.6998 3.7 3.3998 2 2.7998V5.1998C2.1 5.8998 2.69999 6.49979 3.39999 6.49979Z" fill="white"/>
</svg>
