<svg width="16" height="11" viewBox="0 0 16 11" fill="none" xmlns="http://www.w3.org/2000/svg">
<path d="M2.99921 2.69992C2.59921 2.69992 2.29921 2.5999 1.99921 2.3999C1.79921 2.9999 1.69922 3.59992 1.69922 4.19992C1.69922 7.59992 4.4992 10.2999 7.8992 10.2999C11.2992 10.2999 14.0992 7.59992 14.0992 4.19992C14.0992 3.69992 13.9992 3.19992 13.8992 2.69992H2.99921Z" fill="#F18C80"/>
<path d="M0 0C0.9 4.2 4.00002 7.29999 7.80002 7.29999C11.6 7.29999 14.8 4.2 15.6 0C13.9 1.6 11 2.60001 7.80002 2.60001C4.60002 2.60001 1.7 1.5 0 0Z" fill="white"/>
</svg>
