<svg width="102" height="102" viewBox="-43 -60 102 102" fill="none" xmlns="http://www.w3.org/2000/svg">
<path d="M3.00078 2C2.90078 2 2.80078 2 2.70078 2C2.40078 2.7 2.30078 3.39998 2.30078 4.19998C2.30078 7.29998 4.80078 9.79999 7.80078 9.79999C10.9008 9.79999 13.3008 7.29998 13.3008 4.19998C13.3008 3.39998 13.2008 2.70001 12.9008 2.10001H3.00078V2Z" fill="#E83837"/>
<path d="M7.8 6.39999C11.2794 6.39999 14.1 4.96729 14.1 3.19998C14.1 1.43267 11.2794 0 7.8 0C4.32061 0 1.5 1.43267 1.5 3.19998C1.5 4.96729 4.32061 6.39999 7.8 6.39999Z" fill="#E83837"/>
<path d="M0 0C0.9 4.2 4 7.29999 7.8 7.29999C11.6 7.29999 14.8 4.2 15.6 0C13.9 1.6 11 2.60001 7.8 2.60001C4.5 2.60001 1.7 1.6 0 0Z" fill="#0B2C48"/>
</svg>
