<svg width="16" height="10" viewBox="0 0 16 10" fill="none" xmlns="http://www.w3.org/2000/svg">
<path d="M3.00078 2.09961C2.90078 2.09961 2.80078 2.09961 2.70078 2.09961C2.40078 2.79961 2.30078 3.49959 2.30078 4.29959C2.30078 7.39959 4.80079 9.8996 7.90079 9.8996C11.0008 9.8996 13.5008 7.39959 13.5008 4.29959C13.5008 3.49959 13.4008 2.79958 13.1008 2.19958H3.00078V2.09961Z" fill="#E36A41"/>
<path d="M7.8 6.39999C11.2794 6.39999 14.1 4.96729 14.1 3.19998C14.1 1.43267 11.2794 0 7.8 0C4.32061 0 1.5 1.43267 1.5 3.19998C1.5 4.96729 4.32061 6.39999 7.8 6.39999Z" fill="#E36A41"/>
<path d="M0 0C0.9 4.2 4 7.29999 7.8 7.29999C11.6 7.29999 14.8 4.2 15.6 0C13.9 1.6 11 2.60001 7.8 2.60001C4.6 2.60001 1.7 1.6 0 0Z" fill="#0B2C48"/>
</svg>
