<svg width="102" height="102" viewBox="-43 -60 102 102" fill="none" xmlns="http://www.w3.org/2000/svg">
<path d="M7.6004 8.80002C11.0246 8.80002 13.8004 6.83005 13.8004 4.39999C13.8004 1.96994 11.0246 0 7.6004 0C4.17624 0 1.40039 1.96994 1.40039 4.39999C1.40039 6.83005 4.17624 8.80002 7.6004 8.80002Z" fill="#E83837"/>
<path d="M7.6004 12.9999C11.0246 12.9999 13.8004 10.5823 13.8004 7.59995C13.8004 4.61761 11.0246 2.19995 7.6004 2.19995C4.17624 2.19995 1.40039 4.61761 1.40039 7.59995C1.40039 10.5823 4.17624 12.9999 7.6004 12.9999Z" fill="#E83837"/>
<path d="M0 1.8999C0.1 6.6999 3.50004 10.4999 7.60004 10.4999C11.7 10.4999 15.1 6.6999 15.2 1.8999C13.1 2.9999 10.5 3.69992 7.60004 3.69992C4.80004 3.69992 2.1 3.0999 0 1.8999Z" fill="#0B2C48"/>
<path d="M3.40002 6.49979H11.9C12.6 6.49979 13.2 5.8998 13.2 5.1998V2.7998C11.5 3.3998 9.60004 3.6998 7.60004 3.6998C5.60004 3.6998 3.7 3.3998 2 2.7998V5.1998C2 5.8998 2.60002 6.49979 3.40002 6.49979Z" fill="white"/>
</svg>
